<?xml version="1.0" encoding="utf-8"?>
<!-- Generator: Adobe Illustrator 24.0.0, SVG Export Plug-In . SVG Version: 6.00 Build 0)  -->
<svg version="1.0" id="Calque_1" xmlns="http://www.w3.org/2000/svg" xmlns:xlink="http://www.w3.org/1999/xlink" x="0px" y="0px"
	 viewBox="0 0 1183.3 887.4" style="enable-background:new 0 0 1183.3 887.4;" xml:space="preserve">
<style type="text/css">
	.petale{transform:scale(.9,.9);transform-origin:center center;}
	.mask{fill:#000;}
	.petale.claire{fill:#CDFAB5;}
	.lettre{fill:#FFFFFF;}
	.petale{fill:#60F4A9;}

	#Petale_gauche,#Petale_droite{
		animation-direction: normal;
		animation-fill-mode: forwards;
		animation-timing-function: linear;
		animation-duration: 1.5s;
		animation-name: bloom_in_left;
	}

	#Petale_gauche{
		animation-name: bloom_in_right;
	}
	@keyframes bloom_in_right {
		0%{
			transform: translate(0,0);
			opacity:0;
		}
		50% {
			transform: translate(0,0);
			opacity:0;
	  }
	  75% {
			transform: translate(30px,40px);
			opacity:0;
	  }
		90%{
			transform: translate(20px,10px);
			opacity:1;
		}
	  100% {
	     transform: translate(0px,0);
	  }
	}
	@keyframes bloom_in_left {
	0%{
		transform: translate(0,0);
		opacity:0;
	}
	50% {
		transform: translate(0,0);
		opacity:0;
	}
	75% {
		transform: translate(-30px,40px);
		opacity:0;
	}
	90%{
		transform: translate(-20px,10px);
		opacity:1;
	}
	100% {
		 transform: translate(0px,0);
	}
	}
	.lettre{
		opacity:0;
		animation-fill-mode: forwards;
		animation-timing-function: ease-in;
		animation-duration: .5s;
		animation-name: drop;
	}
	@keyframes drop {
	  from {
	    transform: translate(0,-10px);
			opacity:0;
	  }
		50%{
			transform: translate(0,0);
			opacity:1;
		}
		70%{
			transform: translate(0,2px);
			opacity:1;
		}
	  to {
	     transform: translate(0,0);
			 opacity:1;
	  }
	}
	#B{
		animation-delay: 1s;
	}
	#L{
		animation-delay: 1.1s;
	}
	#O{
		animation-delay: 1.2s;
	}
	#O_coupe{
		animation-delay: 1.3s;
	}
	#M{
		animation-delay: 1.4s;
	}
</style>
<g id="Petale_gauche">
	<path class="petale claire" d="M561.3,569.7c-2.2,0-4.4-0.2-6.6-0.6c-23.4-4-58.3-12-92.3-27.5c-40.7-18.5-69.9-43.1-87-73
		c-17.1-30-23.3-67.7-18.6-112.1c4-37.1,14.9-71.3,23.3-93.4c5.7-14.9,20.3-25,36.2-25c2.2,0,4.4,0.2,6.6,0.6
		c23.4,4,58.3,12,92.3,27.5c40.7,18.5,69.9,43.1,87,73c17.1,30,23.3,67.7,18.6,112.1c-4,37.1-14.9,71.3-23.3,93.4
		C591.8,559.7,577.2,569.7,561.3,569.7z"/>
</g>
<g id="Petale_droite">
	<path id="myMask" style="transform:translate(-7px,-3px)" class="mask" d="M760.7,274c-3.1,0-6.3,0.3-9.4,0.9c-25.9,5.2-64.7,15.4-102.2,33.8c-45.2,22.3-77.4,51.1-95.7,85.6
		c-18.3,34.5-24.1,77.3-17.2,127.2c5.7,41.4,19,79.1,29.2,103.6c7.4,17.7,24.6,29.2,43.7,29.2c3.1,0,6.3-0.3,9.4-0.9
		c25.9-5.2,64.7-15.4,102.2-33.8c45.2-22.3,77.4-51.1,95.7-85.6c18.3-34.5,24.1-77.3,17.2-127.2c-5.7-41.4-19-79.1-29.2-103.6
		C797.1,285.4,779.9,274,760.7,274L760.7,274"/>
	<path class="petale" d="M609.1,649.8c-17.4,0-32.9-10.4-39.6-26.4c-10.1-24.2-23.3-61.6-28.9-102.4c-6.8-48.9-1.1-90.8,16.8-124.5
		c17.9-33.7,49.4-61.8,93.8-83.7c37-18.2,75.4-28.3,101.1-33.4c2.8-0.6,5.7-0.9,8.5-0.9c17.4,0,32.9,10.4,39.6,26.4
		c10.1,24.2,23.3,61.6,28.9,102.4c6.8,48.9,1.1,90.8-16.8,124.5c-17.9,33.7-49.4,61.8-93.8,83.7c-37,18.2-75.4,28.3-101.1,33.4
		C614.9,649.5,612,649.8,609.1,649.8z"/>
</g>
<path id="B" class="lettre" d="M330.9,435.4c-6-11.2-14.2-20.1-24.6-26.6c-10.4-6.6-22.2-9.9-35.3-9.9c-10.6,0-20.3,2.2-29.2,6.6
	c-8.3,4.1-15.5,9.6-21.5,16.4c-0.5,0.5-1.3,0.2-1.3-0.5v-70.7c0-4.1-1.2-7.4-3.8-10c-2.5-2.5-5.8-3.7-10-3.7c-4,0-7.2,1.2-9.8,3.7
	c-2.6,2.5-3.9,5.9-3.9,10v122.8c0.1,14.2,3.5,26.9,10,38.2c6.5,11.3,15.3,20.2,26.4,26.8c11.1,6.5,23.7,9.8,37.7,9.8
	c14.2,0,26.8-3.3,38-9.8c11.2-6.6,20-15.5,26.5-26.8c6.5-11.3,9.8-24,9.8-38.2C339.9,459.3,336.9,446.6,330.9,435.4z M307.2,499.3
	c-4.2,7.7-9.9,13.8-17.1,18.2c-7.2,4.4-15.3,6.6-24.5,6.6c-9,0-17.1-2.2-24.4-6.6c-7.2-4.4-13-10.5-17.1-18.2
	c-4.1-7.7-6.2-16.3-6.2-25.8c0-9.7,2-18.3,6.2-25.8c4.1-7.5,9.8-13.5,17.1-17.9c7.3-4.4,15.4-6.6,24.4-6.6c9.2,0,17.3,2.2,24.5,6.6
	c7.2,4.4,12.9,10.4,17.1,17.9c4.2,7.6,6.4,16.2,6.4,25.8C313.6,483,311.4,491.6,307.2,499.3z"/>
<path id="L" class="lettre" d="M423.3,555.6c-2.3-2.5-5.2-3.8-8.8-3.8h-6.7c-4,0-7.2-2.2-9.7-6.5c-2.5-4.3-3.8-9.8-3.8-16.4V382
	c0-4-1.3-7.2-3.8-9.7c-2.5-2.5-5.8-3.7-9.7-3.7c-4,0-7.2,1.2-9.7,3.7c-2.5,2.5-3.8,5.8-3.8,9.7v147c0,9.7,1.7,18.3,5.1,25.7
	c3.4,7.4,8.2,13.3,14.3,17.7c6.1,4.3,13.1,6.5,21,6.5h0.5c5.4,0,9.8-1.3,13.2-3.8c3.4-2.5,5.1-5.8,5.1-9.7
	C426.6,561.3,425.5,558.1,423.3,555.6z"/>
<path id="M" class="lettre" d="M991.6,430.8v77c0,4-1.2,7.2-3.7,9.8c-2.5,2.6-5.9,3.9-9.9,3.9c-4,0-7.2-1.3-9.8-3.9
	c-2.6-2.6-3.9-5.9-3.9-9.8v-77c0-11.3-2.8-19.7-8.4-25.2c-5.5-5.5-12.8-8.2-21.8-8.2c-9.4,0-17,3.2-23,9.7c-5.9,6.3-8.9,14.3-9,24
	c0,0,0,0.1,0,0.1v76.6c0,4-1.2,7.2-3.7,9.8c-2.5,2.6-5.9,3.9-10,3.9c-4,0-7.2-1.3-9.8-3.9c-2.6-2.6-3.9-5.9-3.9-9.8v-77
	c0-11.3-2.8-19.7-8.4-25.2c-5.5-5.5-12.8-8.2-21.8-8.2c-9.3,0-17,3.2-23.2,9.7c-6,6.3-9,14.3-9.1,24v76.6c0,4-1.3,7.2-3.8,9.8
	c-2.5,2.6-5.8,3.9-10,3.9c-4,0-7.2-1.3-9.8-3.9c-2.6-2.6-3.9-5.9-3.9-9.8V388c0-4.1,1.3-7.4,3.9-10c2.6-2.5,5.9-3.8,9.8-3.8
	c4.1,0,7.5,1.3,10,3.8c2.4,2.4,3.7,5.6,3.7,9.5c2.8-2.8,6-5.3,9.5-7.4c8.2-5,17.6-7.5,28.2-7.5c10.2,0,19.3,2.2,27.2,6.7
	c6.1,3.5,11.2,8.3,15.3,14.3c4.3-5.5,9.7-10,16.1-13.5c9-5,19.4-7.5,31.1-7.5c10.2,0,19.3,2.2,27.2,6.7c7.9,4.5,14.1,11.1,18.5,19.8
	C989.4,407.8,991.6,418.4,991.6,430.8z"/>
<path id="O" class="lettre" d="M568.1,384.7c-6.3-11.1-15-19.9-26-26.2c-11.1-6.3-23.7-9.5-38-9.5c-14.4,0-27.2,3.2-38.2,9.5
	c-11,6.3-19.7,15.1-26,26.2c-6.3,11.1-9.5,24-9.5,38.6c0,14.4,3.2,27.2,9.5,38.3c6.3,11.1,15,19.9,26,26.2
	c11.1,6.3,23.8,9.5,38.2,9.5c14.4,0,27.2-3.2,38.2-9.5c11-6.3,19.7-15,25.9-26.2c6.2-11.1,9.4-23.9,9.4-38.3
	C577.6,408.7,574.5,395.8,568.1,384.7z M545.4,449.2c-4,7.5-9.6,13.4-16.7,17.6c-7.1,4.3-15.3,6.4-24.6,6.4
	c-9.3,0-17.5-2.1-24.6-6.4c-7.1-4.3-12.8-10.2-16.9-17.6c-4.1-7.5-6.1-16.1-6.1-25.9c0-9.8,2-18.5,6.1-26
	c4.1-7.6,9.7-13.5,16.9-17.8c7.1-4.2,15.3-6.4,24.6-6.4c9.3,0,17.5,2.2,24.6,6.4c7.2,4.3,12.7,10.2,16.7,17.8c4,7.6,6,16.2,6,26
	C551.4,433.1,549.4,441.7,545.4,449.2z"/>
<path id="O_coupe" class="lettre" d="M750.7,471c0,14.4-3.1,27.2-9.4,38.3c-6.2,11.1-14.9,19.9-25.9,26.2
	c-11,6.4-23.8,9.5-38.2,9.5c-14.4,0-27.2-3.2-38.2-9.5c-11-6.3-19.7-15-26-26.2c-6.3-11.1-9.5-23.9-9.5-38.3c0-0.3,0-0.7,0-1
	c0-6.4,0.9-12.8,2.7-19.3c0.2-0.7,0.4-1.3,0.6-2c3-9.6,15.1-12.6,22.2-5.5c2.5,2.5,3.9,5.9,3.9,9.4c0,1.4-0.2,2.9-0.7,4.3
	c-0.1,0.5-0.3,0.9-0.4,1.4c-1.2,3.9-1.9,7.8-2,11.7c0,0.3,0,0.7,0,1c0,9.8,2,18.4,6.1,25.9c4.1,7.5,9.7,13.3,16.9,17.6
	c7.1,4.3,15.3,6.4,24.6,6.4c9.3,0,17.5-2.1,24.6-6.4c7.2-4.3,12.7-10.2,16.7-17.6c4-7.5,6-16.1,6-25.9c0-9.8-2-18.5-6-26
	c-4-7.6-9.6-13.5-16.7-17.8c-2.8-1.7-5.8-3.1-9-4.1c-4.8-1.6-10-2.3-15.5-2.3h-0.1c-3.6,0.1-7.2,0.8-10.7,1.9
	c-0.4,0.1-0.8,0.3-1.3,0.4c-1.3,0.4-2.6,0.6-3.9,0.6c-3.2,0-6.3-1.2-8.6-3.6c-6.5-6.5-3.8-17.6,5-20.4c0.6-0.2,1.2-0.4,1.8-0.5
	c5.9-1.7,11.8-2.5,17.7-2.5h0.1c14.3,0,26.9,3.2,37.9,9.5c11,6.3,19.7,15.1,26,26.2C747.6,443.6,750.7,456.4,750.7,471z"/>
</svg>
