<?xml version="1.0" encoding="utf-8"?>
<!-- Generator: Adobe Illustrator 24.0.0, SVG Export Plug-In . SVG Version: 6.00 Build 0)  -->
<svg version="1.0" id="Calque_1" xmlns="http://www.w3.org/2000/svg" xmlns:xlink="http://www.w3.org/1999/xlink" x="0px" y="0px"
	 viewBox="0 0 600 300" style="enable-background:new 0 0 600 300;" xml:space="preserve">
<style type="text/css">
	.st1{fill:#CDFAB5;}
	.st2{fill:#60F4A9;}
	.st3{fill:#00555E;}
</style>
<g id="leaf1" class="st0">
	<path class="st1" d="M307,83.1c20.2,35.3,6,83.8-2.7,106.7c-3,8-11.4,12.8-19.7,11.4c-24.3-4.1-73.2-16.5-93.2-52
		c-20.2-35.3-6-83.8,2.7-106.7c3-8,11.4-12.8,19.7-11.4C237.9,35.2,286.7,47.6,307,83.1z"/>
</g>
<g id="leaf0" class="st0">
	<path class="st2" d="M312.1,251.3c-11.2,0-21.3-6.7-25.7-17c-11.9-28.6-28.6-82.6-6.4-124.6C302.4,67.5,356.5,51,386.7,45
		c1.8-0.4,3.7-0.5,5.5-0.5c11.2,0,21.3,6.7,25.7,17c11.9,28.6,28.6,82.6,6.4,124.6s-76.5,58.6-106.7,64.6
		C315.8,251.1,314.1,251.3,312.1,251.3z"/>
	<g>
		<path d="M392.4,52.4c7.8,0,15.1,4.6,18.3,12.3c10.5,25,27.7,78.1,6.6,117.7c-21.1,39.8-74.6,55.2-101.2,60.5
			c-1.2,0.2-2.7,0.4-3.9,0.4c-7.8,0-15.1-4.6-18.3-12.3c-10.5-25-27.7-78.1-6.6-117.7c21.1-39.8,74.6-55.2,101.2-60.5
			C389.9,52.4,391.1,52.4,392.4,52.4 M392.4,36.4L392.4,36.4c-2.3,0-4.8,0.2-7.1,0.7c-31.6,6.4-88.4,23.8-112.2,68.7
			c-23.8,44.9-6.4,101.6,6,131.4c5.7,13.3,18.6,22,33,22c2.3,0,4.8-0.2,7.1-0.7c31.6-6.4,88.4-23.8,112.2-68.7
			c23.8-44.9,6.4-101.6-6-131.4C419.9,45,406.9,36.4,392.4,36.4L392.4,36.4z"/>
	</g>
</g>
<path id="b" class="st3" d="M166,132.7c-3.2-5.9-7.5-10.7-13-14s-11.7-5.1-18.6-5.1c-5.5,0-10.7,1.2-15.4,3.6
	c-4.6,2.3-8.7,5.5-12.1,9.4V88.1c0-2.1-0.7-3.9-2-5.3c-1.2-1.2-3-2-5.3-2c-2.1,0-3.7,0.7-5.1,2c-1.4,1.4-2.1,3-2.1,5.3v64.6
	c0,7.5,1.8,14.2,5.3,20.1c3.4,6,8,10.7,13.8,14c5.9,3.4,12.4,5.1,19.9,5.1c7.5,0,14.2-1.8,20.1-5.1s10.5-8.2,14-14
	c3.4-6,5.1-12.6,5.1-20.1C170.6,145.3,169,138.5,166,132.7z M153.4,166.2c-2.1,4.1-5.1,7.3-9.1,9.6c-3.7,2.3-8,3.6-13,3.6
	c-4.8,0-9.1-1.1-12.8-3.6c-3.7-2.3-6.7-5.5-9.1-9.6c-2.1-4.1-3.2-8.5-3.2-13.7c0-5.1,1.1-9.6,3.2-13.7c2.1-3.9,5.1-7.1,9.1-9.4
	c3.9-2.3,8.2-3.6,12.8-3.6c4.8,0,9.1,1.2,13,3.6c3.7,2.3,6.7,5.5,9.1,9.4c2.3,3.9,3.4,8.5,3.4,13.7
	C156.8,157.7,155.7,162.3,153.4,166.2z"/>
<path id="l" class="st3" d="M214.5,195.9c-1.2-1.2-2.7-2-4.6-2h-3.6c-2.1,0-3.7-1.1-5.1-3.4c-1.4-2.3-2-5.1-2-8.7v-77.4
	c0-2.1-0.7-3.7-2-5.1c-1.2-1.2-3-2-5.1-2s-3.7,0.7-5.1,2c-1.2,1.4-2,3-2,5.1v77.4c0,5.1,0.9,9.6,2.7,13.5c1.8,3.9,4.3,7.1,7.5,9.2
	c3.2,2.3,6.9,3.4,11,3.4h0.4c2.8,0,5.1-0.7,6.9-2c1.8-1.2,2.7-3,2.7-5.1C216.2,198.9,215.7,197.3,214.5,195.9z"/>
<path id="m" class="st3" d="M510.4,113.5c-2.3-4.6-5.5-8-9.8-10.5c-4.1-2.3-8.9-3.6-14.4-3.6c-6.2,0-11.5,1.2-16.3,3.9
	c-3.4,1.8-6.2,4.3-8.5,7.1c-1.1,1.2-1.8,2.5-2.7,3.9c-2.7,4.6-3.9,10.1-3.9,16.2h11.7c0-5.3,1.6-9.6,4.8-13
	c3.2-3.4,7.3-5.1,12.1-5.1c4.8,0,8.5,1.4,11.5,4.3s4.4,7.3,4.4,13.3v40.5c0,2.1,0.7,3.7,2.1,5.1c1.4,1.4,3,2.1,5.1,2.1
	c2.1,0,3.9-0.7,5.3-2.1c1.2-1.4,2-3,2-5.1V130C513.8,123.6,512.6,118.1,510.4,113.5z M463.2,113.5c-0.5-1.1-1.1-2-1.6-2.8
	c-2.1-3.2-4.8-5.7-8-7.5c-4.1-2.3-8.9-3.6-14.4-3.6s-10.5,1.2-14.9,3.9c-1.8,1.1-3.6,2.5-5,3.9c-2.1,2-3.7,4.4-5.3,7.1
	c-2.5,4.6-3.7,10.1-3.7,16.2h8.9c0-5.3,1.6-9.6,4.8-13c3.2-3.4,7.3-5.1,12.3-5.1c4.8,0,8.5,1.4,11.5,4.3c3,2.8,4.4,7.3,4.4,13.3
	v40.5c0,2.1,0.7,3.7,2.1,5.1c1.4,1.4,3,2.1,5.1,2.1c2.1,0,3.9-0.7,5.3-2.1c1.2-1.4,2-3,2-5.1v-40.5
	C466.6,123.6,465.5,118.1,463.2,113.5z M419.2,107.5c0-2.1-0.7-3.7-2-5c-1.2-1.2-3-2-5.3-2c-2.1,0-3.7,0.7-5.1,2
	c-1.4,1.2-2.1,3-2.1,5.3v63c0,2.1,0.7,3.7,2.1,5.1c1.4,1.4,3,2.1,5.1,2.1c2.1,0,3.9-0.7,5.3-2.1c1.2-1.4,2-3,2-5.1v-63.2
	C419.4,107.7,419.4,107.5,419.2,107.5z"/>
<g id="O_1_">
	<path class="st3" d="M222.8,106.1c-3.4,5.9-5,12.6-5,20.1c0,7.6,1.8,14.4,5,20.2c3.4,5.9,8,10.5,13.8,13.8c5.9,3.4,12.8,5,20.4,5
		v-13.8c-5.1,0-9.8-1.1-13.7-3.2c-4.1-2.1-7.1-5.1-9.4-8.9c-2.3-3.7-3.4-8.2-3.4-13c0-5,1.1-9.2,3.4-13c2.3-3.7,5.5-6.7,9.4-8.9
		c4.1-2.1,8.5-3.2,13.7-3.2V87.4c-7.6,0-14.6,1.8-20.4,5S226.2,100.2,222.8,106.1z"/>
	<path class="st3" d="M291.3,105.9c-3.4-5.9-8-10.5-13.8-13.7c-5.9-3.4-12.6-5-20.4-5l0,0v13.8l0,0c5.1,0,9.8,1.1,13.7,3.2
		c3.9,2.1,7.1,5.1,9.4,8.9c2.3,3.7,3.4,8.2,3.4,13c0,5-1.1,9.2-3.4,13c-2.3,3.7-5.3,6.7-9.4,8.9c-3.9,2.1-8.5,3.2-13.7,3.2l0,0V165
		l0,0c7.6,0,14.4-1.8,20.4-5c5.9-3.4,10.5-8,13.8-13.8s5-12.6,5-20.2C296.3,118.5,294.7,111.7,291.3,105.9z"/>
</g>
<path id="O" class="st3" d="M348.3,175.7c-2.7,0-5-0.4-7.3-0.9c-2.3-0.5-4.4-1.4-6.4-2.5c-2-1.1-3.7-2.3-5.3-3.9
	c-1.6-1.4-3-3.2-4.1-5.1c-1.1-2-2-3.9-2.5-6c-0.5-2.1-0.9-4.4-0.9-6.9c0-0.5,0-1.1,0-1.8c0-0.5,0-1.1,0.2-1.4l0,0c0-0.2,0-0.4,0-0.5
	c0-3.6-2.8-6.4-6.4-6.4c-3.4,0-6,2.5-6.4,5.9l0,0c0,0.2,0,0.2,0,0.4v0.2l0,0c-0.2,1.2-0.2,2.5-0.2,3.7c0,3.9,0.4,7.5,1.2,10.8
	c0.9,3.4,2.1,6.6,3.7,9.4c1.6,2.8,3.7,5.5,6,7.8c2.3,2.3,5,4.3,7.8,6c3,1.6,6,2.8,9.6,3.7c3.6,0.9,7.1,1.2,10.8,1.2l0,0l0,0l0,0
	c3.9,0,7.5-0.4,10.8-1.2c3.4-0.9,6.6-2.1,9.6-3.7c3-1.6,5.5-3.7,8-6c2.3-2.3,4.3-5,6-7.8c1.6-3,3-6,3.7-9.4
	c0.7-3.4,1.2-6.9,1.2-10.8c0-3.9-0.4-7.5-1.2-10.8c-0.9-3.4-2.1-6.6-3.7-9.4c-1.6-2.8-3.7-5.5-6-7.8s-5-4.3-8-5.9
	c-3-1.6-6-2.8-9.6-3.7c-3.4-0.9-6.9-1.2-10.8-1.2l0,0l0,0l0,0c-3.9,0-7.5,0.4-10.8,1.2c-1.8,0.4-3.2,0.9-4.6,1.4l0,0
	c-2.7,1.1-4.4,3.6-4.4,6.6c0,3.9,3.2,6.9,6.9,6.9c0.7,0,1.4-0.2,2-0.4l0,0c1.1-0.4,2.7-0.9,3.7-1.1c2.3-0.5,4.8-0.9,7.3-0.9v-0.4
	l0,0v0.4l0,0l0,0c2.7,0,5,0.2,7.3,0.7c2.3,0.5,4.4,1.2,6.4,2.3c2,1.1,3.7,2.3,5.3,3.7c1.6,1.4,2.8,3.2,4.1,5.1c1.1,2,2,3.9,2.5,6
	c0.5,2.1,0.9,4.4,0.9,6.9c0,2.5-0.4,4.8-0.9,6.9c-0.5,2.1-1.4,4.3-2.5,6c-1.1,2-2.5,3.6-4.1,5.1c-1.6,1.4-3.4,2.8-5.3,3.9
	c-2,1.1-4.1,2-6.4,2.5C353.5,175.3,351,175.7,348.3,175.7L348.3,175.7L348.3,175.7L348.3,175.7z"/>
</svg>
