<svg width="85" height="8" viewBox="0 0 85 8" fill="none" xmlns="http://www.w3.org/2000/svg">
<path d="M80.6763 3.07333C79.3139 1.70333 77.6139 0 74.3784 0C71.1429 0 69.4464 1.70333 68.0823 3.07167C66.8261 4.33667 65.8339 5.33333 63.7586 5.33333C61.685 5.33333 60.691 4.33667 59.4349 3.07333C58.0708 1.70333 56.3725 0 53.137 0C49.9015 0 48.2049 1.70333 46.8408 3.07167C45.583 4.33667 44.5873 5.33333 42.5137 5.33333C40.4401 5.33333 39.4445 4.33667 38.1849 3.07333C36.8208 1.70333 35.1242 0 31.887 0C28.6498 0 26.9532 1.70333 25.5908 3.07333C24.3312 4.33667 23.3373 5.33333 21.262 5.33333C19.185 5.33333 18.191 4.33667 16.9315 3.07167C15.5656 1.70333 13.8708 0 10.6319 0C7.39294 0 5.69466 1.70333 4.33054 3.07167C3.07097 4.33667 2.07702 5.33333 0 5.33333V8C3.2372 8 4.93548 6.29667 6.2996 4.92833C7.55917 3.66333 8.55313 2.66667 10.6319 2.66667C12.7089 2.66667 13.7028 3.66333 14.9624 4.92833C16.3265 6.29667 18.0231 8 21.262 8C24.4992 8 26.1958 6.29667 27.5582 4.92667C28.8177 3.66333 29.8117 2.66667 31.887 2.66667C33.964 2.66667 34.958 3.66333 36.2158 4.92833C37.5799 6.29667 39.2748 8 42.5137 8C45.7526 8 47.4475 6.29667 48.8116 4.92667C50.0695 3.66333 51.0617 2.66667 53.137 2.66667C55.2123 2.66667 56.2045 3.66333 57.4624 4.92833C58.8248 6.29667 60.5231 8 63.7586 8C66.994 8 68.6923 6.29667 70.0547 4.92667C71.3126 3.66333 72.3048 2.66667 74.3784 2.66667C76.4537 2.66667 77.446 3.66333 78.7038 4.92833C80.0679 6.29667 81.7645 8 85 8V5.33333C82.9264 5.33333 81.9325 4.33667 80.6763 3.07333Z" fill="#CFF6FF"/>
</svg>
