<?xml version="1.0" encoding="utf-8"?>
<!-- Generator: Adobe Illustrator 24.0.0, SVG Export Plug-In . SVG Version: 6.00 Build 0)  -->
<svg version="1.0" id="Calque_1" xmlns="http://www.w3.org/2000/svg" xmlns:xlink="http://www.w3.org/1999/xlink" x="0px" y="0px"
	 viewBox="0 0 595.3 841.9" style="enable-background:new 0 0 595.3 841.9;" xml:space="preserve">
<style type="text/css">
	.st0{opacity:0.5;}
	.st1{fill:#CDFAB5;}
	.st2{fill:#60F4A9;}
	.st3{fill:#FFFFFF;}
	.st4{fill:#00555E;}

	#leaf1,#leaf0{
		animation-direction: normal;
		animation-iteration-count: 1;
		animation-timing-function: linear;
		animation-duration: .5s;
		animation-name: bloom_in_left;
	}
	#leaf0{
		animation-name: bloom_in_right;
	}

	@keyframes bloom_in_left {
	  from {
	    transform: translate(30px,40px);
			opacity:0;
	  }
		50%{
			transform: translate(20px,10px);
			opacity:1;
		}
	  to {
	     transform: translate(0px,0);
	  }
	}
	@keyframes bloom_in_right {
	  from {
	    transform: translate(-30px,40px);
			opacity:0;
	  }
		50%{
			transform: translate(-20px,10px);
			opacity:1;
		}
	  to {
	     transform: translate(0px,0);
	  }
	}
	.st4{
		opacity:0;
		animation-fill-mode: forwards;
		animation-timing-function: ease-in;
		animation-duration: .5s;
		animation-name: drop;
	}
	@keyframes drop {
	  from {
	    transform: translate(0,-10px);
			opacity:0;
	  }
		50%{
			transform: translate(0,0);
			opacity:1;
		}
		70%{
			transform: translate(0,2px);
			opacity:1;
		}
	  to {
	     transform: translate(0,0);
			 opacity:1;
	  }
	}
	#l{
		animation-delay: .1s;
	}
	#O_1_ .st4{
		animation-delay: .2s;
	}
	#O{
		animation-delay: .3s;
	}
	#m{
		animation-delay: .4s;
	}
</style>
<g id="leaf1" class="st0">
	<path class="st1" d="M305.3,476.2c11.4,19.9,3.4,47.2-1.5,60.1c-1.7,4.5-6.4,7.2-11.1,6.4c-13.7-2.3-41.2-9.3-52.5-29.3
		c-11.4-19.9-3.4-47.2,1.5-60.1c1.7-4.5,6.4-7.2,11.1-6.4C266.4,449.2,293.9,456.2,305.3,476.2z"/>
</g>
<g id="leaf0" class="st0">
	<path class="st2" d="M308.2,570.9c-6.3,0-12-3.8-14.5-9.6c-6.7-16.1-16.1-46.5-3.6-70.2c12.6-23.7,43.1-33,60.1-36.4
		c1-0.2,2.1-0.3,3.1-0.3c6.3,0,12,3.8,14.5,9.6c6.7,16.1,16.1,46.5,3.6,70.2s-43.1,33-60.1,36.4
		C310.3,570.8,309.3,570.9,308.2,570.9z"/>
	<g>
		<path class="st3" d="M353.4,458.9c4.4,0,8.5,2.6,10.3,6.9c5.9,14.1,15.6,44,3.7,66.3c-11.9,22.4-42,31.1-57,34.1
			c-0.7,0.1-1.5,0.2-2.2,0.2c-4.4,0-8.5-2.6-10.3-6.9c-5.9-14.1-15.6-44-3.7-66.3c11.9-22.4,42-31.1,57-34.1
			C352,458.9,352.7,458.9,353.4,458.9 M353.4,449.9L353.4,449.9c-1.3,0-2.7,0.1-4,0.4c-17.8,3.6-49.8,13.4-63.2,38.7
			c-13.4,25.3-3.6,57.2,3.4,74c3.2,7.5,10.5,12.4,18.6,12.4c1.3,0,2.7-0.1,4-0.4c17.8-3.6,49.8-13.4,63.2-38.7
			c13.4-25.3,3.6-57.2-3.4-74C368.9,454.7,361.6,449.9,353.4,449.9L353.4,449.9z"/>
	</g>
</g>
<path id="b" class="st4" d="M225.9,504.1c-1.8-3.3-4.2-6-7.3-7.9c-3.1-1.9-6.6-2.9-10.5-2.9c-3.1,0-6,0.7-8.7,2
	c-2.6,1.3-4.9,3.1-6.8,5.3V479c0-1.2-0.4-2.2-1.1-3c-0.7-0.7-1.7-1.1-3-1.1c-1.2,0-2.1,0.4-2.9,1.1c-0.8,0.8-1.2,1.7-1.2,3v36.4
	c0,4.2,1,8,3,11.3c1.9,3.4,4.5,6,7.8,7.9c3.3,1.9,7,2.9,11.2,2.9c4.2,0,8-1,11.3-2.9c3.3-1.9,5.9-4.6,7.9-7.9
	c1.9-3.4,2.9-7.1,2.9-11.3C228.5,511.2,227.6,507.4,225.9,504.1z M218.8,523c-1.2,2.3-2.9,4.1-5.1,5.4c-2.1,1.3-4.5,2-7.3,2
	c-2.7,0-5.1-0.6-7.2-2c-2.1-1.3-3.8-3.1-5.1-5.4c-1.2-2.3-1.8-4.8-1.8-7.7c0-2.9,0.6-5.4,1.8-7.7c1.2-2.2,2.9-4,5.1-5.3
	c2.2-1.3,4.6-2,7.2-2c2.7,0,5.1,0.7,7.3,2c2.1,1.3,3.8,3.1,5.1,5.3c1.3,2.2,1.9,4.8,1.9,7.7C220.7,518.2,220.1,520.8,218.8,523z"/>
<path id="l" class="st4" d="M253.2,539.7c-0.7-0.7-1.5-1.1-2.6-1.1h-2c-1.2,0-2.1-0.6-2.9-1.9c-0.8-1.3-1.1-2.9-1.1-4.9v-43.6
	c0-1.2-0.4-2.1-1.1-2.9c-0.7-0.7-1.7-1.1-2.9-1.1c-1.2,0-2.1,0.4-2.9,1.1c-0.7,0.8-1.1,1.7-1.1,2.9v43.6c0,2.9,0.5,5.4,1.5,7.6
	c1,2.2,2.4,4,4.2,5.2c1.8,1.3,3.9,1.9,6.2,1.9h0.2c1.6,0,2.9-0.4,3.9-1.1c1-0.7,1.5-1.7,1.5-2.9
	C254.2,541.4,253.9,540.5,253.2,539.7z"/>
<path id="m" class="st4" d="M419.9,493.3c-1.3-2.6-3.1-4.5-5.5-5.9c-2.3-1.3-5-2-8.1-2c-3.5,0-6.5,0.7-9.2,2.2c-1.9,1-3.5,2.4-4.8,4
	c-0.6,0.7-1,1.4-1.5,2.2c-1.5,2.6-2.2,5.7-2.2,9.1h6.6c0-3,0.9-5.4,2.7-7.3c1.8-1.9,4.1-2.9,6.8-2.9c2.7,0,4.8,0.8,6.5,2.4
	c1.7,1.6,2.5,4.1,2.5,7.5v22.8c0,1.2,0.4,2.1,1.2,2.9c0.8,0.8,1.7,1.2,2.9,1.2c1.2,0,2.2-0.4,3-1.2c0.7-0.8,1.1-1.7,1.1-2.9v-22.8
	C421.8,499,421.1,495.9,419.9,493.3z M393.3,493.3c-0.3-0.6-0.6-1.1-0.9-1.6c-1.2-1.8-2.7-3.2-4.5-4.2c-2.3-1.3-5-2-8.1-2
	c-3.1,0-5.9,0.7-8.4,2.2c-1,0.6-2,1.4-2.8,2.2c-1.2,1.1-2.1,2.5-3,4c-1.4,2.6-2.1,5.7-2.1,9.1h5c0-3,0.9-5.4,2.7-7.3
	c1.8-1.9,4.1-2.9,6.9-2.9c2.7,0,4.8,0.8,6.5,2.4c1.7,1.6,2.5,4.1,2.5,7.5v22.8c0,1.2,0.4,2.1,1.2,2.9c0.8,0.8,1.7,1.2,2.9,1.2
	c1.2,0,2.2-0.4,3-1.2c0.7-0.8,1.1-1.7,1.1-2.9v-22.8C395.2,499,394.6,495.9,393.3,493.3z M368.5,489.9c0-1.2-0.4-2.1-1.1-2.8
	c-0.7-0.7-1.7-1.1-3-1.1c-1.2,0-2.1,0.4-2.9,1.1c-0.8,0.7-1.2,1.7-1.2,3v35.5c0,1.2,0.4,2.1,1.2,2.9c0.8,0.8,1.7,1.2,2.9,1.2
	c1.2,0,2.2-0.4,3-1.2c0.7-0.8,1.1-1.7,1.1-2.9V490C368.6,490,368.6,489.9,368.5,489.9z"/>
<g id="O_1_">
	<path class="st4" d="M257.9,489.1c-1.9,3.3-2.8,7.1-2.8,11.3c0,4.3,1,8.1,2.8,11.4c1.9,3.3,4.5,5.9,7.8,7.8
		c3.3,1.9,7.2,2.8,11.5,2.8v-7.8c-2.9,0-5.5-0.6-7.7-1.8c-2.3-1.2-4-2.9-5.3-5c-1.3-2.1-1.9-4.6-1.9-7.3c0-2.8,0.6-5.2,1.9-7.3
		c1.3-2.1,3.1-3.8,5.3-5c2.3-1.2,4.8-1.8,7.7-1.8v-7.8c-4.3,0-8.2,1-11.5,2.8C262.4,483.2,259.8,485.8,257.9,489.1z"/>
	<path class="st4" d="M296.5,489c-1.9-3.3-4.5-5.9-7.8-7.7c-3.3-1.9-7.1-2.8-11.5-2.8h0v7.8h0c2.9,0,5.5,0.6,7.7,1.8
		c2.2,1.2,4,2.9,5.3,5c1.3,2.1,1.9,4.6,1.9,7.3c0,2.8-0.6,5.2-1.9,7.3c-1.3,2.1-3,3.8-5.3,5c-2.2,1.2-4.8,1.8-7.7,1.8h0v7.8h0
		c4.3,0,8.1-1,11.5-2.8c3.3-1.9,5.9-4.5,7.8-7.8c1.9-3.3,2.8-7.1,2.8-11.4C299.3,496.1,298.4,492.3,296.5,489z"/>
</g>
<path id="O" class="st4" d="M328.6,528.3c-1.5,0-2.8-0.2-4.1-0.5c-1.3-0.3-2.5-0.8-3.6-1.4c-1.1-0.6-2.1-1.3-3-2.2
	c-0.9-0.8-1.7-1.8-2.3-2.9c-0.6-1.1-1.1-2.2-1.4-3.4c-0.3-1.2-0.5-2.5-0.5-3.9c0-0.3,0-0.6,0-1c0-0.3,0-0.6,0.1-0.8l0,0
	c0-0.1,0-0.2,0-0.3c0-2-1.6-3.6-3.6-3.6c-1.9,0-3.4,1.4-3.6,3.3l0,0c0,0.1,0,0.1,0,0.2c0,0,0,0.1,0,0.1c0,0,0,0,0,0
	c-0.1,0.7-0.1,1.4-0.1,2.1c0,2.2,0.2,4.2,0.7,6.1c0.5,1.9,1.2,3.7,2.1,5.3c0.9,1.6,2.1,3.1,3.4,4.4c1.3,1.3,2.8,2.4,4.4,3.4
	c1.7,0.9,3.4,1.6,5.4,2.1s4,0.7,6.1,0.7h0h0h0c2.2,0,4.2-0.2,6.1-0.7c1.9-0.5,3.7-1.2,5.4-2.1c1.7-0.9,3.1-2.1,4.5-3.4
	c1.3-1.3,2.4-2.8,3.4-4.4c0.9-1.7,1.7-3.4,2.1-5.3s0.7-3.9,0.7-6.1c0-2.2-0.2-4.2-0.7-6.1c-0.5-1.9-1.2-3.7-2.1-5.3
	c-0.9-1.6-2.1-3.1-3.4-4.4c-1.3-1.3-2.8-2.4-4.5-3.3c-1.7-0.9-3.4-1.6-5.4-2.1c-1.9-0.5-3.9-0.7-6.1-0.7h0h0h0
	c-2.2,0-4.2,0.2-6.1,0.7c-1,0.2-1.8,0.5-2.6,0.8l0,0c-1.5,0.6-2.5,2-2.5,3.7c0,2.2,1.8,3.9,3.9,3.9c0.4,0,0.8-0.1,1.1-0.2l0,0
	c0.6-0.2,1.5-0.5,2.1-0.6c1.3-0.3,2.7-0.5,4.1-0.5v-0.2h0v0.2h0h0c1.5,0,2.8,0.1,4.1,0.4c1.3,0.3,2.5,0.7,3.6,1.3
	c1.1,0.6,2.1,1.3,3,2.1c0.9,0.8,1.6,1.8,2.3,2.9c0.6,1.1,1.1,2.2,1.4,3.4c0.3,1.2,0.5,2.5,0.5,3.9c0,1.4-0.2,2.7-0.5,3.9
	c-0.3,1.2-0.8,2.4-1.4,3.4c-0.6,1.1-1.4,2-2.3,2.9c-0.9,0.8-1.9,1.6-3,2.2c-1.1,0.6-2.3,1.1-3.6,1.4
	C331.5,528.1,330.1,528.3,328.6,528.3L328.6,528.3L328.6,528.3L328.6,528.3z"/>
</svg>
